<svg width="400" height="328" viewBox="0 0 400 328" fill="none" xmlns="http://www.w3.org/2000/svg">
<path d="M349.379 261.105C349.379 248.613 345.871 236.371 339.254 225.773C332.637 215.176 323.177 206.648 311.951 201.161C300.725 195.673 288.183 193.447 275.754 194.735C263.324 196.022 251.506 200.772 241.643 208.444C233.249 198.734 222.418 191.436 210.264 187.302C198.111 183.168 185.075 182.347 172.499 184.923C159.923 187.5 148.261 193.381 138.714 201.961C129.167 210.541 122.08 221.51 118.183 233.739C111.663 227.944 103.832 223.82 95.3644 221.72C86.8968 219.62 78.0458 219.608 69.5724 221.684C61.0991 223.761 53.2571 227.864 46.7209 233.64C40.1847 239.417 35.1498 246.694 32.0494 254.847C28.9489 262.999 27.8756 271.782 28.9218 280.441C29.968 289.1 33.1024 297.375 38.0553 304.555C43.0083 311.734 49.6317 317.604 57.3558 321.659C65.0799 325.713 73.6736 327.832 82.3978 327.831C83.2349 327.831 84.0668 327.81 84.8946 327.772C85.7494 327.809 86.608 327.831 87.4719 327.831H289.66C304.208 327.831 318.234 322.416 329.007 312.641C339.78 302.867 346.528 289.434 347.935 274.958C348.897 270.403 349.381 265.761 349.379 261.105V261.105Z" fill="#63E5FF"/>
<path d="M351.649 252.935C351.649 240.442 348.141 228.201 341.524 217.603C334.907 207.006 325.448 198.478 314.221 192.991C302.995 187.503 290.454 185.277 278.024 186.564C265.594 187.852 253.776 192.602 243.914 200.274C235.519 190.564 224.688 183.266 212.535 179.132C200.381 174.998 187.345 174.177 174.769 176.753C162.193 179.33 150.531 185.211 140.984 193.791C131.437 202.371 124.35 213.34 120.453 225.569C113.933 219.774 106.102 215.649 97.6345 213.55C89.1669 211.45 80.3159 211.438 71.8426 213.514C63.3693 215.591 55.5273 219.694 48.991 225.47C42.4548 231.247 37.42 238.524 34.3195 246.677C31.219 254.829 30.1457 263.612 31.1919 272.271C32.2381 280.93 35.3725 289.205 40.3255 296.384C45.2785 303.564 51.9018 309.434 59.6259 313.488C67.35 317.543 75.9437 319.661 84.6679 319.661C85.505 319.661 86.337 319.639 87.1648 319.602C88.0196 319.639 88.8781 319.661 89.7421 319.661H291.93C306.478 319.66 320.505 314.245 331.277 304.471C342.05 294.697 348.798 281.264 350.205 266.788C351.167 262.233 351.651 257.59 351.649 252.935V252.935Z" stroke="#3F3D56" stroke-miterlimit="10"/>
<path d="M87.4801 209.814C110.912 209.814 129.907 190.824 129.907 167.399C129.907 143.974 110.912 124.984 87.4801 124.984C64.0484 124.984 45.0533 143.974 45.0533 167.399C45.0533 190.824 64.0484 209.814 87.4801 209.814Z" fill="#63E5FF"/>
<path d="M87.6187 74.9186H87.6187C81.8756 74.9186 77.22 79.5729 77.22 85.3143V106.438C77.22 112.18 81.8756 116.834 87.6187 116.834C93.3618 116.834 98.0174 112.18 98.0174 106.438V85.3143C98.0174 79.5729 93.3618 74.9186 87.6187 74.9186Z" fill="#63E5FF"/>
<path d="M167.663 121.279L167.663 121.279C164.791 116.307 158.432 114.603 153.458 117.474L135.159 128.036C130.185 130.907 128.481 137.264 131.352 142.237C134.224 147.209 140.584 148.912 145.557 146.042L163.857 135.48C168.83 132.609 170.534 126.251 167.663 121.279Z" fill="#63E5FF"/>
<path d="M7.29734 213.519L7.29735 213.519C10.1689 218.491 16.5286 220.195 21.5023 217.324L39.8016 206.762C44.7752 203.891 46.4793 197.534 43.6078 192.561C40.7362 187.589 34.3765 185.886 29.4028 188.756L11.1035 199.318C6.1299 202.189 4.42581 208.547 7.29734 213.519Z" fill="#63E5FF"/>
<path d="M7.43594 121.039L7.43593 121.039C4.5644 126.011 6.2685 132.369 11.2421 135.24L29.5414 145.802C34.5151 148.672 40.8748 146.969 43.7464 141.997C46.6179 137.024 44.9138 130.666 39.9402 127.796L21.6408 117.234C16.6672 114.363 10.3075 116.067 7.43594 121.039Z" fill="#63E5FF"/>
<path d="M92.4744 204.821C115.906 204.821 134.901 185.831 134.901 162.406C134.901 138.981 115.906 119.992 92.4744 119.992C69.0427 119.992 50.0476 138.981 50.0476 162.406C50.0476 185.831 69.0427 204.821 92.4744 204.821Z" stroke="#3F3D56" stroke-miterlimit="10"/>
<path d="M92.613 69.9257H92.613C98.3561 69.9257 103.012 74.58 103.012 80.3214V101.446C103.012 107.187 98.3561 111.841 92.613 111.841H92.613C86.87 111.841 82.2143 107.187 82.2143 101.446V80.3214C82.2143 74.58 86.87 69.9257 92.613 69.9257Z" stroke="#3F3D56" stroke-miterlimit="10"/>
<path d="M172.657 116.286L172.657 116.286C175.529 121.258 173.825 127.616 168.851 130.487L150.552 141.049C145.578 143.92 139.218 142.216 136.347 137.244L136.347 137.244C133.475 132.272 135.179 125.914 140.153 123.043L158.452 112.481C163.426 109.61 169.786 111.314 172.657 116.286Z" stroke="#3F3D56" stroke-miterlimit="10"/>
<path d="M12.2916 208.526L12.2916 208.526C9.42007 203.554 11.1242 197.196 16.0978 194.325L34.3971 183.763C39.3707 180.893 45.7305 182.596 48.602 187.568L48.602 187.568C51.4736 192.541 49.7695 198.899 44.7958 201.769L26.4965 212.331C21.5229 215.202 15.1631 213.498 12.2916 208.526Z" stroke="#3F3D56" stroke-miterlimit="10"/>
<path d="M12.4303 116.046L12.4303 116.046C15.3018 111.074 21.6615 109.37 26.6352 112.241L44.9345 122.803C49.9081 125.674 51.6122 132.031 48.7407 137.004L48.7407 137.004C45.8691 141.976 39.5094 143.679 34.5358 140.809L16.2364 130.247C11.2628 127.376 9.55873 121.018 12.4303 116.046Z" stroke="#3F3D56" stroke-miterlimit="10"/>
<path d="M316.559 240.885L309.253 255.773C309.253 255.773 296.046 254.088 301.385 271.504C301.385 271.504 299.98 284.707 297.17 287.517C294.361 290.326 299.418 308.866 309.534 303.529C315.224 300.527 315.58 297.08 314.802 294.639C313.595 290.998 313.359 287.106 314.119 283.346C315.134 278.594 316.963 272.516 320.212 267.291C326.675 256.897 332.857 246.784 332.857 246.784L316.559 240.885Z" fill="#F4D2BE"/>
<path d="M298.295 165.773C298.295 165.773 282.247 163.081 276.897 165.004C271.548 166.926 255.781 167.118 255.781 167.118C255.781 167.118 242.549 181.729 245.646 189.227C248.743 196.725 261.694 201.339 261.694 201.339L305.334 201.531L312.372 181.922C312.372 181.922 308.994 168.464 306.178 167.695C303.363 166.926 298.295 165.773 298.295 165.773Z" fill="#A9A8B5"/>
<path d="M281.271 81.7017C292.931 81.7017 302.384 71.0328 302.384 57.8721C302.384 44.7113 292.931 34.0424 281.271 34.0424C269.611 34.0424 260.159 44.7113 260.159 57.8721C260.159 71.0328 269.611 81.7017 281.271 81.7017Z" fill="#2F2E41"/>
<path d="M269.071 71.7738C269.071 71.7738 271.881 83.5723 267.666 84.9768C263.451 86.3814 259.798 91.9997 259.798 91.9997L265.98 102.394L287.055 107.731L293.517 101.551L298.294 88.3478L293.517 84.9768C293.517 84.9768 289.022 86.3814 288.741 81.8868C288.606 78.5133 288.7 75.1346 289.022 71.7738L269.071 71.7738Z" fill="#F4D2BE"/>
<path opacity="0.1" d="M269.071 71.7738C269.071 71.7738 271.881 83.5723 267.666 84.9768C263.451 86.3814 259.798 91.9997 259.798 91.9997L265.98 102.394L287.055 107.731L293.517 101.551L298.294 88.3478L293.517 84.9768C293.517 84.9768 289.022 86.3814 288.741 81.8868C288.606 78.5133 288.7 75.1346 289.022 71.7738L269.071 71.7738Z" fill="black"/>
<path d="M279.889 79.499C289.356 79.499 297.03 71.827 297.03 62.3632C297.03 52.8993 289.356 45.2273 279.889 45.2273C270.423 45.2273 262.749 52.8993 262.749 62.3632C262.749 71.827 270.423 79.499 279.889 79.499Z" fill="#F4D2BE"/>
<path d="M275.086 81.7017C270.694 77.6629 267.971 72.0526 267.971 65.8503C267.971 54.9783 276.336 45.9254 287.401 43.9668C285.934 43.7094 284.417 43.5742 282.863 43.5742C270.324 43.5742 260.159 52.3743 260.159 63.2296C260.159 71.7201 266.377 78.9531 275.086 81.7017Z" fill="#2F2E41"/>
<path d="M279.045 101.603L262.722 86.77C262.722 86.77 255.404 92.9272 254.56 92.9272C253.715 92.9272 242.739 96.2857 242.458 97.6851C242.176 99.0844 252.027 113.918 252.027 113.918C252.027 113.918 249.775 124.833 252.027 129.591C254.278 134.349 254.56 171.12 254.56 171.12C254.56 171.12 269.476 165.802 277.357 168.321C285.237 170.84 308.315 168.321 308.315 168.321C308.315 168.321 309.723 130.43 308.315 127.632C306.908 124.833 306.627 108.88 306.627 108.88L318.729 95.726C318.729 95.726 316.196 85.6505 306.627 85.0908C297.058 84.531 291.147 83.9713 291.147 83.9713L279.045 101.603Z" fill="#EFA1CB"/>
<path d="M259.798 170.656C259.798 170.656 228.326 156.329 215.682 149.587C203.037 142.845 183.648 148.183 189.83 163.352C196.012 178.522 230.574 193.41 230.574 193.41C230.574 193.41 241.814 201.838 248.558 201.557C255.302 201.276 264.996 201.416 264.996 201.416L259.798 170.656Z" fill="#A9A8B5"/>
<path d="M308.41 172.622C308.41 172.622 364.891 173.184 361.238 194.253C357.585 215.321 335.948 250.436 332.014 251.279C328.08 252.121 313.749 245.941 313.749 243.975C313.749 242.008 327.518 205.77 327.518 205.77L293.799 195.377L308.41 172.622Z" fill="#A9A8B5"/>
<path d="M319.088 109.697C319.088 109.697 322.46 142.003 320.774 147.059C319.088 152.116 313.187 165.88 305.6 172.622C298.013 179.364 287.336 213.355 281.435 197.062C275.534 180.769 290.989 171.78 290.989 171.78L306.48 149.99L306.626 114.529L319.088 109.697Z" fill="#F4D2BE"/>
<path d="M255.864 177.398C255.864 177.398 283.683 187.23 286.774 185.825C289.865 184.421 296.608 189.477 296.608 189.477C299.725 188.81 302.943 188.765 306.077 189.343C309.211 189.922 312.2 191.113 314.873 192.848C323.865 198.748 325.832 205.489 323.865 205.77C321.898 206.051 314.873 202.961 314.873 202.961C314.873 202.961 304.195 200.714 297.733 202.68C291.27 204.647 282.846 200.501 282.846 200.501L248.558 192.848L255.864 177.398Z" fill="#F4D2BE"/>
<path opacity="0.1" d="M255.864 177.398C255.864 177.398 283.683 187.23 286.774 185.825C289.865 184.421 296.608 189.477 296.608 189.477C299.725 188.81 302.943 188.765 306.077 189.343C309.211 189.922 312.2 191.113 314.873 192.848C323.865 198.748 325.832 205.489 323.865 205.77C321.898 206.051 314.873 202.961 314.873 202.961C314.873 202.961 304.195 200.714 297.733 202.68C291.27 204.647 282.846 200.501 282.846 200.501L248.558 192.848L255.864 177.398Z" fill="black"/>
<path d="M242.376 121.777C242.376 121.777 242.657 156.61 246.872 160.824C251.087 165.038 255.583 170.656 259.798 173.184C264.013 175.712 266.261 181.612 266.261 181.612C266.261 181.612 286.493 211.108 286.774 197.624C287.055 184.14 276.377 173.465 276.377 173.465L274.287 171.476C269.715 167.174 265.581 162.43 261.946 157.313C261.116 156.093 260.108 155.004 258.955 154.082C255.302 151.273 254.459 120.372 254.459 120.372L242.376 121.777Z" fill="#F4D2BE"/>
<path d="M312.625 92.2806L318.526 95.6516C318.526 95.6516 320.774 110.54 321.898 112.507C323.022 114.473 308.129 119.529 305.881 118.125C303.633 116.72 302.509 102.955 302.509 102.955L312.625 92.2806Z" fill="#EFA1CB"/>
<path d="M246.029 97.3371H242.376C242.376 97.3371 238.442 101.551 238.723 110.54C239.004 119.529 235.351 125.148 237.599 125.99C239.847 126.833 251.06 122.372 250.933 123.62C250.806 124.867 256.707 122.619 256.707 122.619L252.773 107.731L246.029 97.3371Z" fill="#EFA1CB"/>
<path opacity="0.1" d="M217.79 154.925C217.79 154.925 234.93 162.228 239.707 163.352C244.484 164.476 259.923 177.624 259.923 177.624L249.385 193.623C249.385 193.623 238.583 192.286 232.682 191.163C226.781 190.039 191.657 166.723 197.558 162.79C203.459 158.858 217.79 154.925 217.79 154.925Z" fill="black"/>
<path d="M214.277 154.925C214.277 154.925 231.417 162.228 236.194 163.352C240.971 164.476 259.798 177.398 259.798 177.398L250.525 195.376C250.525 195.376 235.07 192.286 229.169 191.163C223.268 190.039 188.144 166.723 194.045 162.79C199.946 158.858 214.277 154.925 214.277 154.925Z" fill="#A9A8B5"/>
<path d="M289.005 83.5173C292.007 79.4785 293.867 73.8683 293.867 67.666C293.867 56.7939 288.151 47.741 280.59 45.7825C281.592 45.525 282.629 45.3899 283.691 45.3899C292.259 45.3899 299.205 54.1899 299.205 65.0452C299.205 73.5357 294.956 80.7687 289.005 83.5173Z" fill="#2F2E41"/>
</svg>
